<svg xmlns="http://www.w3.org/2000/svg" version="1.1" xmlns:xlink="http://www.w3.org/1999/xlink" xmlns:svgjs="http://svgjs.dev/svgjs" width="1500" height="454" viewBox="0 0 1500 454"><g transform="matrix(1,0,0,1,-0.9090909090909918,-0.8635846219456766)"><svg viewBox="0 0 396 120" data-background-color="#444444" preserveAspectRatio="xMidYMid meet" height="454" width="1500" xmlns="http://www.w3.org/2000/svg" xmlns:xlink="http://www.w3.org/1999/xlink"><g id="tight-bounds" transform="matrix(1,0,0,1,0.2400000000000091,0.2282602524966535)"><svg viewBox="0 0 395.52 119.54347949500671" height="119.54347949500671" width="395.52"><g><svg viewBox="0 0 619.3442010764448 187.1929631920846" height="119.54347949500671" width="395.52"><g transform="matrix(1,0,0,1,223.82420107644478,54.80469644596331)"><svg viewBox="0 0 395.52000000000004 77.58357030015797" height="77.58357030015797" width="395.52000000000004"><g id="textblocktransform"><svg viewBox="0 0 395.52000000000004 77.58357030015797" height="77.58357030015797" width="395.52000000000004" id="textblock"><g><svg viewBox="0 0 395.52000000000004 77.58357030015797" height="77.58357030015797" width="395.52000000000004"><g transform="matrix(1,0,0,1,0,0)"><svg width="395.52000000000004" viewBox="2.85 -36.65 192.28 37.25" height="77.58357030015797" data-palette-color="url(#01cd521b-161f-48e4-bda2-679498bcee72)"><g class="wordmark-text-0" data-fill-palette-color="primary" id="text-0"></g></svg></g></svg></g></svg></g></svg></g><g><svg viewBox="0 0 187.1929631920846 187.1929631920846" height="187.1929631920846" width="187.1929631920846"><g><svg></svg></g><g id="icon-0"><svg viewBox="0 0 187.1929631920846 187.1929631920846" height="187.1929631920846" width="187.1929631920846"><g></g><g transform="matrix(1,0,0,1,41.00304794566755,41.00304794566755)"><svg viewBox="0 0 105.1868673007495 105.1868673007495" height="105.1868673007495" width="105.1868673007495"><g><svg xmlns="http://www.w3.org/2000/svg" xmlns:xlink="http://www.w3.org/1999/xlink" version="1.1" x="0" y="0" viewBox="4 4 56 56" style="enable-background:new 0 0 64 64;" xml:space="preserve" height="105.1868673007495" width="105.1868673007495" class="icon-dxe-0" data-fill-palette-color="quaternary" id="dxe-0"><g fill="#444444" data-fill-palette-color="quaternary"><path d="M28 20C31.309 20 34 17.309 34 14S31.309 8 28 8 22 10.691 22 14 24.691 20 28 20M28 10C30.206 10 32 11.794 32 14S30.206 18 28 18 24 16.206 24 14 25.794 10 28 10" fill="#444444" data-fill-palette-color="quaternary"></path><path d="M11.586 18L15.293 21.707A1 1 0 0 0 17 21V18C18.654 18 20 16.654 20 15V11C20 9.346 18.654 8 17 8H7C5.346 8 4 9.346 4 11V15C4 16.654 5.346 18 7 18zM6 15V11C6 10.448 6.449 10 7 10H17C17.551 10 18 10.448 18 11V15C18 15.552 17.551 16 17 16H16A1 1 0 0 0 15 17V18.586L12.707 16.293A1 1 0 0 0 12 16H7C6.449 16 6 15.552 6 15" fill="#444444" data-fill-palette-color="quaternary"></path><rect x="8" y="12" width="8" height="2" fill="#444444" data-fill-palette-color="quaternary"></rect><path d="M55 4H42C39.243 4 37 6.243 37 9V20.532L31.86 22H22C19.243 22 17 24.243 17 27V35H13V37H42V35H35V28.659L37.078 27.769C37.451 30.159 39.506 32 42 32H55C57.757 32 60 29.757 60 27V9C60 6.243 57.757 4 55 4M33.606 27.081A1 1 0 0 0 33 28V35H29V28H30V26H26V28H27V35H23V28H21V35H19V27C19 25.346 20.346 24 22 24H32C32.093 24 32.186 23.987 32.275 23.962L39.275 21.962C39.503 21.897 39.7 21.752 39.832 21.555L43.155 16.57 44.694 18.109 40.349 24.192zM58 27C58 28.654 56.654 30 55 30H42C40.346 30 39 28.654 39 27H38.872L41.395 25.919A1 1 0 0 0 41.815 25.581L46.815 18.581A1 1 0 0 0 46.708 17.293L43.708 14.293A0.998 0.998 0 0 0 42.169 14.445L39 19.198V9C39 7.346 40.346 6 42 6H55C56.654 6 58 7.346 58 9z" fill="#444444" data-fill-palette-color="quaternary"></path><rect x="42" y="9" width="13" height="2" fill="#444444" data-fill-palette-color="quaternary"></rect><rect x="47" y="13" width="8" height="2" fill="#444444" data-fill-palette-color="quaternary"></rect><rect x="49" y="17" width="6" height="2" fill="#444444" data-fill-palette-color="quaternary"></rect><rect x="47" y="21" width="8" height="2" fill="#444444" data-fill-palette-color="quaternary"></rect><rect x="44" y="25" width="11" height="2" fill="#444444" data-fill-palette-color="quaternary"></rect><path d="M35 53H29C26.243 53 24 55.243 24 58V60H26V58C26 56.346 27.346 55 29 55H35C36.654 55 38 56.346 38 58V60H40V58C40 55.243 37.757 53 35 53" fill="#444444" data-fill-palette-color="quaternary"></path><path d="M53 53H47C44.243 53 42 55.243 42 58V60H44V58C44 56.346 45.346 55 47 55H53C54.654 55 56 56.346 56 58V60H58V58C58 55.243 55.757 53 53 53" fill="#444444" data-fill-palette-color="quaternary"></path><path d="M17 53H11C8.243 53 6 55.243 6 58V60H8V58C8 56.346 9.346 55 11 55H17C18.654 55 20 56.346 20 58V60H22V58C22 55.243 19.757 53 17 53" fill="#444444" data-fill-palette-color="quaternary"></path><rect x="44" y="35" width="2" height="2" fill="#444444" data-fill-palette-color="quaternary"></rect><path d="M10 47C10 49.206 11.794 51 14 51S18 49.206 18 47V46H20V44H17.858C17.411 42.279 15.858 41 14 41 11.794 41 10 42.794 10 45zM16 47C16 48.103 15.103 49 14 49S12 48.103 12 47V46H16zM14 43C14.737 43 15.375 43.405 15.722 44H12.279C12.625 43.405 13.263 43 14 43" fill="#444444" data-fill-palette-color="quaternary"></path><path d="M32 51C34.206 51 36 49.206 36 47V46H38V44H35.858C35.411 42.279 33.858 41 32 41 29.794 41 28 42.794 28 45V47C28 49.206 29.794 51 32 51M34 47C34 48.103 33.103 49 32 49S30 48.103 30 47V46H34zM32 43C32.737 43 33.375 43.405 33.722 44H30.279C30.625 43.405 31.263 43 32 43" fill="#444444" data-fill-palette-color="quaternary"></path><path d="M46 47C46 49.206 47.794 51 50 51S54 49.206 54 47V46H56V44H53.858C53.411 42.279 51.858 41 50 41 47.794 41 46 42.794 46 45zM52 47C52 48.103 51.103 49 50 49S48 48.103 48 47V46H52zM50 43C50.737 43 51.375 43.405 51.722 44H48.279C48.625 43.405 49.263 43 50 43" fill="#444444" data-fill-palette-color="quaternary"></path></g></svg></g></svg></g></svg></g></svg></g></svg></g><defs></defs><mask id="b5f58268-ab33-46c5-a4f8-04d00038e8d6"><g id="SvgjsG2300"><svg viewBox="0 0 395.52 119.54347949500671" height="119.54347949500671" width="395.52"><g><svg viewBox="0 0 619.3442010764448 187.1929631920846" height="119.54347949500671" width="395.52"><g transform="matrix(1,0,0,1,223.82420107644478,54.80469644596331)"><svg viewBox="0 0 395.52000000000004 77.58357030015797" height="77.58357030015797" width="395.52000000000004"><g id="SvgjsG2299"><svg viewBox="0 0 395.52000000000004 77.58357030015797" height="77.58357030015797" width="395.52000000000004" id="SvgjsSvg2298"><g><svg viewBox="0 0 395.52000000000004 77.58357030015797" height="77.58357030015797" width="395.52000000000004"><g transform="matrix(1,0,0,1,0,0)"><svg width="395.52000000000004" viewBox="2.85 -36.65 192.28 37.25" height="77.58357030015797" data-palette-color="url(#01cd521b-161f-48e4-bda2-679498bcee72)"><g class="wordmark-text-0" data-fill-palette-color="primary" id="SvgjsG2297"><path d="M9.45 0L2.85 0 2.85-25 9.05-25 9.35-21.75Q10.5-23.65 12.3-24.63 14.1-25.6 16.3-25.6L16.3-25.6Q19.35-25.6 21.43-24.3 23.5-23 24.45-20.3L24.45-20.3Q25.55-22.85 27.55-24.23 29.55-25.6 32.2-25.6L32.2-25.6Q36.6-25.6 38.9-22.83 41.2-20.05 41.2-14.3L41.2-14.3 41.2 0 34.6 0 34.6-12.8Q34.6-15.35 34.05-16.75 33.5-18.15 32.55-18.78 31.6-19.4 30.3-19.4L30.3-19.4Q27.9-19.45 26.6-17.85 25.3-16.25 25.3-13.1L25.3-13.1 25.3 0 18.7 0 18.7-12.8Q18.7-15.35 18.18-16.75 17.65-18.15 16.68-18.78 15.7-19.4 14.4-19.4L14.4-19.4Q12-19.45 10.73-17.85 9.45-16.25 9.45-13.1L9.45-13.1 9.45 0ZM69.45-25L52.75-6.35 48.8-10.9 61.6-25 69.45-25ZM53.05 0L46.45 0 46.45-35 53.05-35 53.05 0ZM70.2 0L62.45 0 54.15-12.1 58.45-16.65 70.2 0ZM94.59 0L88.45 0 88.25-5.05 88.25-12.65Q88.25-14.9 87.77-16.5 87.3-18.1 86.27-18.98 85.25-19.85 83.5-19.85L83.5-19.85Q81.9-19.85 80.59-19.15 79.3-18.45 78.4-17L78.4-17 72.59-19Q73.3-20.6 74.65-22.13 76-23.65 78.17-24.63 80.34-25.6 83.5-25.6L83.5-25.6Q87.3-25.6 89.82-24.15 92.34-22.7 93.57-20.08 94.8-17.45 94.75-13.85L94.75-13.85 94.59 0ZM81.45 0.6L81.45 0.6Q76.95 0.6 74.47-1.4 72-3.4 72-7.05L72-7.05Q72-11.05 74.67-13.08 77.34-15.1 82.2-15.1L82.2-15.1 88.55-15.1 88.55-10.2 84.5-10.2Q81.25-10.2 80-9.43 78.75-8.65 78.75-7.25L78.75-7.25Q78.75-6.15 79.75-5.53 80.75-4.9 82.55-4.9L82.55-4.9Q84.2-4.9 85.47-5.68 86.75-6.45 87.5-7.68 88.25-8.9 88.25-10.2L88.25-10.2 89.84-10.2Q89.84-5.1 87.92-2.25 86 0.6 81.45 0.6ZM106.99 0L100.39 0 100.39-25 106.99-25 106.99 0ZM103.69-29.05L103.69-29.05Q102.19-29.05 101.04-30.18 99.89-31.3 99.89-32.85L99.89-32.85Q99.89-34.4 101.04-35.52 102.19-36.65 103.69-36.65L103.69-36.65Q105.24-36.65 106.37-35.52 107.49-34.4 107.49-32.85L107.49-32.85Q107.49-31.3 106.37-30.18 105.24-29.05 103.69-29.05ZM137.14 0L130.89 0 130.54-4.65 130.54-35 137.14-35 137.14 0ZM123.04 0.6L123.04 0.6Q119.59 0.6 117.07-1 114.54-2.6 113.14-5.55 111.74-8.5 111.74-12.5L111.74-12.5Q111.74-16.55 113.14-19.48 114.54-22.4 117.07-24 119.59-25.6 123.04-25.6L123.04-25.6Q126.19-25.6 128.37-24 130.54-22.4 131.69-19.48 132.84-16.55 132.84-12.5L132.84-12.5Q132.84-8.5 131.69-5.55 130.54-2.6 128.37-1 126.19 0.6 123.04 0.6ZM124.74-5.45L124.74-5.45Q126.44-5.45 127.77-6.35 129.09-7.25 129.84-8.85 130.59-10.45 130.59-12.5L130.59-12.5Q130.59-14.55 129.84-16.15 129.09-17.75 127.77-18.63 126.44-19.5 124.69-19.5L124.69-19.5Q122.89-19.5 121.54-18.63 120.19-17.75 119.39-16.15 118.59-14.55 118.59-12.5L118.59-12.5Q118.59-10.45 119.39-8.85 120.19-7.25 121.57-6.35 122.94-5.45 124.74-5.45ZM154.14 0.6L154.14 0.6Q150.44 0.6 147.59-1.07 144.74-2.75 143.11-5.7 141.49-8.65 141.49-12.5L141.49-12.5Q141.49-16.35 143.16-19.3 144.84-22.25 147.76-23.93 150.69-25.6 154.49-25.6L154.49-25.6Q157.79-25.6 160.56-23.88 163.34-22.15 165.01-18.82 166.69-15.5 166.69-10.75L166.69-10.75 147.74-10.75 148.34-11.35Q148.34-9.5 149.26-8.13 150.19-6.75 151.66-6.03 153.14-5.3 154.84-5.3L154.84-5.3Q156.89-5.3 158.19-6.18 159.49-7.05 160.19-8.45L160.19-8.45 166.09-6.15Q165.04-4.05 163.36-2.53 161.69-1 159.39-0.2 157.09 0.6 154.14 0.6ZM148.69-15.05L148.69-15.05 148.09-15.65 160.14-15.65 159.59-15.05Q159.59-16.85 158.74-17.93 157.89-19 156.66-19.5 155.44-20 154.29-20L154.29-20Q153.14-20 151.84-19.5 150.54-19 149.61-17.93 148.69-16.85 148.69-15.05ZM184.88 0L178.84 0 188.34-25 195.13-25 184.88 0ZM184.34 0L178.28 0 168.03-25 174.84-25 184.34 0Z" fill="white"></path></g></svg></g></svg></g></svg></g></svg></g><g><svg viewBox="0 0 187.1929631920846 187.1929631920846" height="187.1929631920846" width="187.1929631920846"><g><svg></svg></g><g id="SvgjsG2296"><svg viewBox="0 0 187.1929631920846 187.1929631920846" height="187.1929631920846" width="187.1929631920846"><g><path d="M0 93.596c0-51.692 41.905-93.596 93.596-93.596 51.692 0 93.596 41.905 93.597 93.596 0 51.692-41.905 93.596-93.597 93.597-51.692 0-93.596-41.905-93.596-93.597zM93.596 180.196c47.828 0 86.6-38.772 86.6-86.6 0-47.828-38.772-86.6-86.6-86.599-47.828 0-86.6 38.772-86.599 86.599 0 47.828 38.772 86.6 86.599 86.6z" fill="black" stroke="transparent"></path><ellipse rx="92.66051678008188" ry="92.66051678008188" cx="93.5964815960423" cy="93.5964815960423" fill="black" stroke="transparent" stroke-width="0" fill-opacity="1"></ellipse></g><g transform="matrix(1,0,0,1,41.00304794566755,41.00304794566755)"><svg viewBox="0 0 105.1868673007495 105.1868673007495" height="105.1868673007495" width="105.1868673007495"><g><svg xmlns="http://www.w3.org/2000/svg" xmlns:xlink="http://www.w3.org/1999/xlink" version="1.1" x="0" y="0" viewBox="4 4 56 56" style="enable-background:new 0 0 64 64;" xml:space="preserve" height="105.1868673007495" width="105.1868673007495" class="icon-dxe-0" data-fill-palette-color="quaternary" id="SvgjsSvg2295"><g fill="black"><path d="M28 20C31.309 20 34 17.309 34 14S31.309 8 28 8 22 10.691 22 14 24.691 20 28 20M28 10C30.206 10 32 11.794 32 14S30.206 18 28 18 24 16.206 24 14 25.794 10 28 10" fill="black"></path><path d="M11.586 18L15.293 21.707A1 1 0 0 0 17 21V18C18.654 18 20 16.654 20 15V11C20 9.346 18.654 8 17 8H7C5.346 8 4 9.346 4 11V15C4 16.654 5.346 18 7 18zM6 15V11C6 10.448 6.449 10 7 10H17C17.551 10 18 10.448 18 11V15C18 15.552 17.551 16 17 16H16A1 1 0 0 0 15 17V18.586L12.707 16.293A1 1 0 0 0 12 16H7C6.449 16 6 15.552 6 15" fill="black"></path><rect x="8" y="12" width="8" height="2" fill="black"></rect><path d="M55 4H42C39.243 4 37 6.243 37 9V20.532L31.86 22H22C19.243 22 17 24.243 17 27V35H13V37H42V35H35V28.659L37.078 27.769C37.451 30.159 39.506 32 42 32H55C57.757 32 60 29.757 60 27V9C60 6.243 57.757 4 55 4M33.606 27.081A1 1 0 0 0 33 28V35H29V28H30V26H26V28H27V35H23V28H21V35H19V27C19 25.346 20.346 24 22 24H32C32.093 24 32.186 23.987 32.275 23.962L39.275 21.962C39.503 21.897 39.7 21.752 39.832 21.555L43.155 16.57 44.694 18.109 40.349 24.192zM58 27C58 28.654 56.654 30 55 30H42C40.346 30 39 28.654 39 27H38.872L41.395 25.919A1 1 0 0 0 41.815 25.581L46.815 18.581A1 1 0 0 0 46.708 17.293L43.708 14.293A0.998 0.998 0 0 0 42.169 14.445L39 19.198V9C39 7.346 40.346 6 42 6H55C56.654 6 58 7.346 58 9z" fill="black"></path><rect x="42" y="9" width="13" height="2" fill="black"></rect><rect x="47" y="13" width="8" height="2" fill="black"></rect><rect x="49" y="17" width="6" height="2" fill="black"></rect><rect x="47" y="21" width="8" height="2" fill="black"></rect><rect x="44" y="25" width="11" height="2" fill="black"></rect><path d="M35 53H29C26.243 53 24 55.243 24 58V60H26V58C26 56.346 27.346 55 29 55H35C36.654 55 38 56.346 38 58V60H40V58C40 55.243 37.757 53 35 53" fill="black"></path><path d="M53 53H47C44.243 53 42 55.243 42 58V60H44V58C44 56.346 45.346 55 47 55H53C54.654 55 56 56.346 56 58V60H58V58C58 55.243 55.757 53 53 53" fill="black"></path><path d="M17 53H11C8.243 53 6 55.243 6 58V60H8V58C8 56.346 9.346 55 11 55H17C18.654 55 20 56.346 20 58V60H22V58C22 55.243 19.757 53 17 53" fill="black"></path><rect x="44" y="35" width="2" height="2" fill="black"></rect><path d="M10 47C10 49.206 11.794 51 14 51S18 49.206 18 47V46H20V44H17.858C17.411 42.279 15.858 41 14 41 11.794 41 10 42.794 10 45zM16 47C16 48.103 15.103 49 14 49S12 48.103 12 47V46H16zM14 43C14.737 43 15.375 43.405 15.722 44H12.279C12.625 43.405 13.263 43 14 43" fill="black"></path><path d="M32 51C34.206 51 36 49.206 36 47V46H38V44H35.858C35.411 42.279 33.858 41 32 41 29.794 41 28 42.794 28 45V47C28 49.206 29.794 51 32 51M34 47C34 48.103 33.103 49 32 49S30 48.103 30 47V46H34zM32 43C32.737 43 33.375 43.405 33.722 44H30.279C30.625 43.405 31.263 43 32 43" fill="black"></path><path d="M46 47C46 49.206 47.794 51 50 51S54 49.206 54 47V46H56V44H53.858C53.411 42.279 51.858 41 50 41 47.794 41 46 42.794 46 45zM52 47C52 48.103 51.103 49 50 49S48 48.103 48 47V46H52zM50 43C50.737 43 51.375 43.405 51.722 44H48.279C48.625 43.405 49.263 43 50 43" fill="black"></path></g></svg></g></svg></g></svg></g></svg></g></svg></g><defs><mask></mask></defs></svg><rect width="395.52" height="119.54347949500671" fill="black" stroke="none" visibility="hidden"></rect></g></mask><linearGradient x1="0" x2="1" y1="0.578" y2="0.595" id="01cd521b-161f-48e4-bda2-679498bcee72"><stop stop-color="#6ee2f5" offset="0"></stop><stop stop-color="#6454f0" offset="1"></stop></linearGradient><rect width="395.52" height="119.54347949500671" fill="url(#01cd521b-161f-48e4-bda2-679498bcee72)" mask="url(#b5f58268-ab33-46c5-a4f8-04d00038e8d6)" data-fill-palette-color="primary"></rect><mask id="52e2e2b7-5249-46b2-9a6a-098b7ab77683"><g id="SvgjsG2312"><svg viewBox="0 0 395.52 119.54347949500671" height="119.54347949500671" width="395.52"><g><svg viewBox="0 0 619.3442010764448 187.1929631920846" height="119.54347949500671" width="395.52"><g transform="matrix(1,0,0,1,223.82420107644478,54.80469644596331)"><svg viewBox="0 0 395.52000000000004 77.58357030015797" height="77.58357030015797" width="395.52000000000004"><g id="SvgjsG2311"><svg viewBox="0 0 395.52000000000004 77.58357030015797" height="77.58357030015797" width="395.52000000000004" id="SvgjsSvg2310"><g><svg viewBox="0 0 395.52000000000004 77.58357030015797" height="77.58357030015797" width="395.52000000000004"><g transform="matrix(1,0,0,1,0,0)"><svg width="395.52000000000004" viewBox="2.85 -36.65 192.28 37.25" height="77.58357030015797" data-palette-color="url(#01cd521b-161f-48e4-bda2-679498bcee72)"><g class="wordmark-text-0" data-fill-palette-color="primary" id="SvgjsG2309"></g></svg></g></svg></g></svg></g></svg></g><g><svg viewBox="0 0 187.1929631920846 187.1929631920846" height="187.1929631920846" width="187.1929631920846"><g><svg></svg></g><g id="SvgjsG2308"><svg viewBox="0 0 187.1929631920846 187.1929631920846" height="187.1929631920846" width="187.1929631920846"><g><path d="M0 93.596c0-51.692 41.905-93.596 93.596-93.596 51.692 0 93.596 41.905 93.597 93.596 0 51.692-41.905 93.596-93.597 93.597-51.692 0-93.596-41.905-93.596-93.597zM93.596 180.196c47.828 0 86.6-38.772 86.6-86.6 0-47.828-38.772-86.6-86.6-86.599-47.828 0-86.6 38.772-86.599 86.599 0 47.828 38.772 86.6 86.599 86.6z" fill="white" stroke="transparent"></path><ellipse rx="92.66051678008188" ry="92.66051678008188" cx="93.5964815960423" cy="93.5964815960423" fill="white" stroke="transparent" stroke-width="0" fill-opacity="1"></ellipse></g><g transform="matrix(1,0,0,1,41.00304794566755,41.00304794566755)"><svg viewBox="0 0 105.1868673007495 105.1868673007495" height="105.1868673007495" width="105.1868673007495"><g><svg xmlns="http://www.w3.org/2000/svg" xmlns:xlink="http://www.w3.org/1999/xlink" version="1.1" x="0" y="0" viewBox="4 4 56 56" style="enable-background:new 0 0 64 64;" xml:space="preserve" height="105.1868673007495" width="105.1868673007495" class="icon-dxe-0" data-fill-palette-color="quaternary" id="SvgjsSvg2307"><g fill="black"><path d="M28 20C31.309 20 34 17.309 34 14S31.309 8 28 8 22 10.691 22 14 24.691 20 28 20M28 10C30.206 10 32 11.794 32 14S30.206 18 28 18 24 16.206 24 14 25.794 10 28 10" fill="black"></path><path d="M11.586 18L15.293 21.707A1 1 0 0 0 17 21V18C18.654 18 20 16.654 20 15V11C20 9.346 18.654 8 17 8H7C5.346 8 4 9.346 4 11V15C4 16.654 5.346 18 7 18zM6 15V11C6 10.448 6.449 10 7 10H17C17.551 10 18 10.448 18 11V15C18 15.552 17.551 16 17 16H16A1 1 0 0 0 15 17V18.586L12.707 16.293A1 1 0 0 0 12 16H7C6.449 16 6 15.552 6 15" fill="black"></path><rect x="8" y="12" width="8" height="2" fill="black"></rect><path d="M55 4H42C39.243 4 37 6.243 37 9V20.532L31.86 22H22C19.243 22 17 24.243 17 27V35H13V37H42V35H35V28.659L37.078 27.769C37.451 30.159 39.506 32 42 32H55C57.757 32 60 29.757 60 27V9C60 6.243 57.757 4 55 4M33.606 27.081A1 1 0 0 0 33 28V35H29V28H30V26H26V28H27V35H23V28H21V35H19V27C19 25.346 20.346 24 22 24H32C32.093 24 32.186 23.987 32.275 23.962L39.275 21.962C39.503 21.897 39.7 21.752 39.832 21.555L43.155 16.57 44.694 18.109 40.349 24.192zM58 27C58 28.654 56.654 30 55 30H42C40.346 30 39 28.654 39 27H38.872L41.395 25.919A1 1 0 0 0 41.815 25.581L46.815 18.581A1 1 0 0 0 46.708 17.293L43.708 14.293A0.998 0.998 0 0 0 42.169 14.445L39 19.198V9C39 7.346 40.346 6 42 6H55C56.654 6 58 7.346 58 9z" fill="black"></path><rect x="42" y="9" width="13" height="2" fill="black"></rect><rect x="47" y="13" width="8" height="2" fill="black"></rect><rect x="49" y="17" width="6" height="2" fill="black"></rect><rect x="47" y="21" width="8" height="2" fill="black"></rect><rect x="44" y="25" width="11" height="2" fill="black"></rect><path d="M35 53H29C26.243 53 24 55.243 24 58V60H26V58C26 56.346 27.346 55 29 55H35C36.654 55 38 56.346 38 58V60H40V58C40 55.243 37.757 53 35 53" fill="black"></path><path d="M53 53H47C44.243 53 42 55.243 42 58V60H44V58C44 56.346 45.346 55 47 55H53C54.654 55 56 56.346 56 58V60H58V58C58 55.243 55.757 53 53 53" fill="black"></path><path d="M17 53H11C8.243 53 6 55.243 6 58V60H8V58C8 56.346 9.346 55 11 55H17C18.654 55 20 56.346 20 58V60H22V58C22 55.243 19.757 53 17 53" fill="black"></path><rect x="44" y="35" width="2" height="2" fill="black"></rect><path d="M10 47C10 49.206 11.794 51 14 51S18 49.206 18 47V46H20V44H17.858C17.411 42.279 15.858 41 14 41 11.794 41 10 42.794 10 45zM16 47C16 48.103 15.103 49 14 49S12 48.103 12 47V46H16zM14 43C14.737 43 15.375 43.405 15.722 44H12.279C12.625 43.405 13.263 43 14 43" fill="black"></path><path d="M32 51C34.206 51 36 49.206 36 47V46H38V44H35.858C35.411 42.279 33.858 41 32 41 29.794 41 28 42.794 28 45V47C28 49.206 29.794 51 32 51M34 47C34 48.103 33.103 49 32 49S30 48.103 30 47V46H34zM32 43C32.737 43 33.375 43.405 33.722 44H30.279C30.625 43.405 31.263 43 32 43" fill="black"></path><path d="M46 47C46 49.206 47.794 51 50 51S54 49.206 54 47V46H56V44H53.858C53.411 42.279 51.858 41 50 41 47.794 41 46 42.794 46 45zM52 47C52 48.103 51.103 49 50 49S48 48.103 48 47V46H52zM50 43C50.737 43 51.375 43.405 51.722 44H48.279C48.625 43.405 49.263 43 50 43" fill="black"></path></g></svg></g></svg></g></svg></g></svg></g></svg></g><defs><mask></mask></defs><mask><g id="SvgjsG2306"><svg viewBox="0 0 395.52 119.54347949500671" height="119.54347949500671" width="395.52"><g><svg viewBox="0 0 619.3442010764448 187.1929631920846" height="119.54347949500671" width="395.52"><g transform="matrix(1,0,0,1,223.82420107644478,54.80469644596331)"><svg viewBox="0 0 395.52000000000004 77.58357030015797" height="77.58357030015797" width="395.52000000000004"><g id="SvgjsG2305"><svg viewBox="0 0 395.52000000000004 77.58357030015797" height="77.58357030015797" width="395.52000000000004" id="SvgjsSvg2304"><g><svg viewBox="0 0 395.52000000000004 77.58357030015797" height="77.58357030015797" width="395.52000000000004"><g transform="matrix(1,0,0,1,0,0)"><svg width="395.52000000000004" viewBox="2.85 -36.65 192.28 37.25" height="77.58357030015797" data-palette-color="url(#01cd521b-161f-48e4-bda2-679498bcee72)"><g class="wordmark-text-0" data-fill-palette-color="primary" id="SvgjsG2303"><path d="M9.45 0L2.85 0 2.85-25 9.05-25 9.35-21.75Q10.5-23.65 12.3-24.63 14.1-25.6 16.3-25.6L16.3-25.6Q19.35-25.6 21.43-24.3 23.5-23 24.45-20.3L24.45-20.3Q25.55-22.85 27.55-24.23 29.55-25.6 32.2-25.6L32.2-25.6Q36.6-25.6 38.9-22.83 41.2-20.05 41.2-14.3L41.2-14.3 41.2 0 34.6 0 34.6-12.8Q34.6-15.35 34.05-16.75 33.5-18.15 32.55-18.78 31.6-19.4 30.3-19.4L30.3-19.4Q27.9-19.45 26.6-17.85 25.3-16.25 25.3-13.1L25.3-13.1 25.3 0 18.7 0 18.7-12.8Q18.7-15.35 18.18-16.75 17.65-18.15 16.68-18.78 15.7-19.4 14.4-19.4L14.4-19.4Q12-19.45 10.73-17.85 9.45-16.25 9.45-13.1L9.45-13.1 9.45 0ZM69.45-25L52.75-6.35 48.8-10.9 61.6-25 69.45-25ZM53.05 0L46.45 0 46.45-35 53.05-35 53.05 0ZM70.2 0L62.45 0 54.15-12.1 58.45-16.65 70.2 0ZM94.59 0L88.45 0 88.25-5.05 88.25-12.65Q88.25-14.9 87.77-16.5 87.3-18.1 86.27-18.98 85.25-19.85 83.5-19.85L83.5-19.85Q81.9-19.85 80.59-19.15 79.3-18.45 78.4-17L78.4-17 72.59-19Q73.3-20.6 74.65-22.13 76-23.65 78.17-24.63 80.34-25.6 83.5-25.6L83.5-25.6Q87.3-25.6 89.82-24.15 92.34-22.7 93.57-20.08 94.8-17.45 94.75-13.85L94.75-13.85 94.59 0ZM81.45 0.6L81.45 0.6Q76.95 0.6 74.47-1.4 72-3.4 72-7.05L72-7.05Q72-11.05 74.67-13.08 77.34-15.1 82.2-15.1L82.2-15.1 88.55-15.1 88.55-10.2 84.5-10.2Q81.25-10.2 80-9.43 78.75-8.65 78.75-7.25L78.75-7.25Q78.75-6.15 79.75-5.53 80.75-4.9 82.55-4.9L82.55-4.9Q84.2-4.9 85.47-5.68 86.75-6.45 87.5-7.68 88.25-8.9 88.25-10.2L88.25-10.2 89.84-10.2Q89.84-5.1 87.92-2.25 86 0.6 81.45 0.6ZM106.99 0L100.39 0 100.39-25 106.99-25 106.99 0ZM103.69-29.05L103.69-29.05Q102.19-29.05 101.04-30.18 99.89-31.3 99.89-32.85L99.89-32.85Q99.89-34.4 101.04-35.52 102.19-36.65 103.69-36.65L103.69-36.65Q105.24-36.65 106.37-35.52 107.49-34.4 107.49-32.85L107.49-32.85Q107.49-31.3 106.37-30.18 105.24-29.05 103.69-29.05ZM137.14 0L130.89 0 130.54-4.65 130.54-35 137.14-35 137.14 0ZM123.04 0.6L123.04 0.6Q119.59 0.6 117.07-1 114.54-2.6 113.14-5.55 111.74-8.5 111.74-12.5L111.74-12.5Q111.74-16.55 113.14-19.48 114.54-22.4 117.07-24 119.59-25.6 123.04-25.6L123.04-25.6Q126.19-25.6 128.37-24 130.54-22.4 131.69-19.48 132.84-16.55 132.84-12.5L132.84-12.5Q132.84-8.5 131.69-5.55 130.54-2.6 128.37-1 126.19 0.6 123.04 0.6ZM124.74-5.45L124.74-5.45Q126.44-5.45 127.77-6.35 129.09-7.25 129.84-8.85 130.59-10.45 130.59-12.5L130.59-12.5Q130.59-14.55 129.84-16.15 129.09-17.75 127.77-18.63 126.44-19.5 124.69-19.5L124.69-19.5Q122.89-19.5 121.54-18.63 120.19-17.75 119.39-16.15 118.59-14.55 118.59-12.5L118.59-12.5Q118.59-10.45 119.39-8.85 120.19-7.25 121.57-6.35 122.94-5.45 124.74-5.45ZM154.14 0.6L154.14 0.6Q150.44 0.6 147.59-1.07 144.74-2.75 143.11-5.7 141.49-8.65 141.49-12.5L141.49-12.5Q141.49-16.35 143.16-19.3 144.84-22.25 147.76-23.93 150.69-25.6 154.49-25.6L154.49-25.6Q157.79-25.6 160.56-23.88 163.34-22.15 165.01-18.82 166.69-15.5 166.69-10.75L166.69-10.75 147.74-10.75 148.34-11.35Q148.34-9.5 149.26-8.13 150.19-6.75 151.66-6.03 153.14-5.3 154.84-5.3L154.84-5.3Q156.89-5.3 158.19-6.18 159.49-7.05 160.19-8.45L160.19-8.45 166.09-6.15Q165.04-4.05 163.36-2.53 161.69-1 159.39-0.2 157.09 0.6 154.14 0.6ZM148.69-15.05L148.69-15.05 148.09-15.65 160.14-15.65 159.59-15.05Q159.59-16.85 158.74-17.93 157.89-19 156.66-19.5 155.44-20 154.29-20L154.29-20Q153.14-20 151.84-19.5 150.54-19 149.61-17.93 148.69-16.85 148.69-15.05ZM184.88 0L178.84 0 188.34-25 195.13-25 184.88 0ZM184.34 0L178.28 0 168.03-25 174.84-25 184.34 0Z" fill="black"></path></g></svg></g></svg></g></svg></g></svg></g><g><svg viewBox="0 0 187.1929631920846 187.1929631920846" height="187.1929631920846" width="187.1929631920846"><g><svg></svg></g><g id="SvgjsG2302"><svg viewBox="0 0 187.1929631920846 187.1929631920846" height="187.1929631920846" width="187.1929631920846"><g><path d="M0 93.596c0-51.692 41.905-93.596 93.596-93.596 51.692 0 93.596 41.905 93.597 93.596 0 51.692-41.905 93.596-93.597 93.597-51.692 0-93.596-41.905-93.596-93.597zM93.596 180.196c47.828 0 86.6-38.772 86.6-86.6 0-47.828-38.772-86.6-86.6-86.599-47.828 0-86.6 38.772-86.599 86.599 0 47.828 38.772 86.6 86.599 86.6z" fill="black" stroke="transparent"></path><ellipse rx="92.66051678008188" ry="92.66051678008188" cx="93.5964815960423" cy="93.5964815960423" fill="black" stroke="transparent" stroke-width="0" fill-opacity="1"></ellipse></g><g transform="matrix(1,0,0,1,41.00304794566755,41.00304794566755)"><svg viewBox="0 0 105.1868673007495 105.1868673007495" height="105.1868673007495" width="105.1868673007495"><g><svg xmlns="http://www.w3.org/2000/svg" xmlns:xlink="http://www.w3.org/1999/xlink" version="1.1" x="0" y="0" viewBox="4 4 56 56" style="enable-background:new 0 0 64 64;" xml:space="preserve" height="105.1868673007495" width="105.1868673007495" class="icon-dxe-0" data-fill-palette-color="quaternary" id="SvgjsSvg2301"><g fill="black"><path d="M28 20C31.309 20 34 17.309 34 14S31.309 8 28 8 22 10.691 22 14 24.691 20 28 20M28 10C30.206 10 32 11.794 32 14S30.206 18 28 18 24 16.206 24 14 25.794 10 28 10" fill="black"></path><path d="M11.586 18L15.293 21.707A1 1 0 0 0 17 21V18C18.654 18 20 16.654 20 15V11C20 9.346 18.654 8 17 8H7C5.346 8 4 9.346 4 11V15C4 16.654 5.346 18 7 18zM6 15V11C6 10.448 6.449 10 7 10H17C17.551 10 18 10.448 18 11V15C18 15.552 17.551 16 17 16H16A1 1 0 0 0 15 17V18.586L12.707 16.293A1 1 0 0 0 12 16H7C6.449 16 6 15.552 6 15" fill="black"></path><rect x="8" y="12" width="8" height="2" fill="black"></rect><path d="M55 4H42C39.243 4 37 6.243 37 9V20.532L31.86 22H22C19.243 22 17 24.243 17 27V35H13V37H42V35H35V28.659L37.078 27.769C37.451 30.159 39.506 32 42 32H55C57.757 32 60 29.757 60 27V9C60 6.243 57.757 4 55 4M33.606 27.081A1 1 0 0 0 33 28V35H29V28H30V26H26V28H27V35H23V28H21V35H19V27C19 25.346 20.346 24 22 24H32C32.093 24 32.186 23.987 32.275 23.962L39.275 21.962C39.503 21.897 39.7 21.752 39.832 21.555L43.155 16.57 44.694 18.109 40.349 24.192zM58 27C58 28.654 56.654 30 55 30H42C40.346 30 39 28.654 39 27H38.872L41.395 25.919A1 1 0 0 0 41.815 25.581L46.815 18.581A1 1 0 0 0 46.708 17.293L43.708 14.293A0.998 0.998 0 0 0 42.169 14.445L39 19.198V9C39 7.346 40.346 6 42 6H55C56.654 6 58 7.346 58 9z" fill="black"></path><rect x="42" y="9" width="13" height="2" fill="black"></rect><rect x="47" y="13" width="8" height="2" fill="black"></rect><rect x="49" y="17" width="6" height="2" fill="black"></rect><rect x="47" y="21" width="8" height="2" fill="black"></rect><rect x="44" y="25" width="11" height="2" fill="black"></rect><path d="M35 53H29C26.243 53 24 55.243 24 58V60H26V58C26 56.346 27.346 55 29 55H35C36.654 55 38 56.346 38 58V60H40V58C40 55.243 37.757 53 35 53" fill="black"></path><path d="M53 53H47C44.243 53 42 55.243 42 58V60H44V58C44 56.346 45.346 55 47 55H53C54.654 55 56 56.346 56 58V60H58V58C58 55.243 55.757 53 53 53" fill="black"></path><path d="M17 53H11C8.243 53 6 55.243 6 58V60H8V58C8 56.346 9.346 55 11 55H17C18.654 55 20 56.346 20 58V60H22V58C22 55.243 19.757 53 17 53" fill="black"></path><rect x="44" y="35" width="2" height="2" fill="black"></rect><path d="M10 47C10 49.206 11.794 51 14 51S18 49.206 18 47V46H20V44H17.858C17.411 42.279 15.858 41 14 41 11.794 41 10 42.794 10 45zM16 47C16 48.103 15.103 49 14 49S12 48.103 12 47V46H16zM14 43C14.737 43 15.375 43.405 15.722 44H12.279C12.625 43.405 13.263 43 14 43" fill="black"></path><path d="M32 51C34.206 51 36 49.206 36 47V46H38V44H35.858C35.411 42.279 33.858 41 32 41 29.794 41 28 42.794 28 45V47C28 49.206 29.794 51 32 51M34 47C34 48.103 33.103 49 32 49S30 48.103 30 47V46H34zM32 43C32.737 43 33.375 43.405 33.722 44H30.279C30.625 43.405 31.263 43 32 43" fill="black"></path><path d="M46 47C46 49.206 47.794 51 50 51S54 49.206 54 47V46H56V44H53.858C53.411 42.279 51.858 41 50 41 47.794 41 46 42.794 46 45zM52 47C52 48.103 51.103 49 50 49S48 48.103 48 47V46H52zM50 43C50.737 43 51.375 43.405 51.722 44H48.279C48.625 43.405 49.263 43 50 43" fill="black"></path></g></svg></g></svg></g></svg></g></svg></g></svg></g><defs><mask></mask></defs></svg><rect width="395.52" height="119.54347949500671" fill="black" stroke="none" visibility="hidden"></rect></g></mask></svg><rect width="395.52" height="119.54347949500671" fill="black" stroke="none" visibility="hidden"></rect></g></mask><linearGradient x1="0" x2="1" y1="0.578" y2="0.595" id="a2d03684-eceb-45cf-bd81-22034a86e3c2"><stop stop-color="#6ee2f5" offset="0"></stop><stop stop-color="#6454f0" offset="1"></stop></linearGradient><rect width="395.52" height="119.54347949500671" fill="url(#12d03684-eceb-45cf-bd81-22034a86e3c2)" mask="url(#52e2e2b7-5249-46b2-9a6a-098b7ab77683)" data-fill-palette-color="accent"></rect></svg><rect width="395.52" height="119.54347949500671" fill="none" stroke="none" visibility="hidden"></rect></g></svg></g></svg>